<svg width="24" height="24" viewBox="0 0 24 24" fill="none" xmlns="http://www.w3.org/2000/svg">
  <path d="M17.4 4.35C17.4 3.86 16.95 3.49 16.47 3.59L8.05 5.36C7.69 5.44 7.44 5.75 7.44 6.12V14.1C6.98 13.89 6.45 13.78 5.9 13.78C4.28 13.78 3 14.82 3 16.12C3 17.42 4.28 18.46 5.9 18.46C7.51 18.46 8.8 17.42 8.8 16.12V8.22L16.04 6.7V12.82C15.58 12.61 15.05 12.5 14.5 12.5C12.88 12.5 11.6 13.54 11.6 14.84C11.6 16.14 12.88 17.18 14.5 17.18C16.11 17.18 17.4 16.14 17.4 14.84V4.35Z" fill="#dfe7f0"/>
</svg>
